<svg xmlns="http://www.w3.org/2000/svg" xmlns:xlink="http://www.w3.org/1999/xlink" viewBox="0 0 1920 396.96"><defs><style>.cls-1{fill:url(#linear-gradient);}.cls-2{fill:url(#linear-gradient-2);}</style><linearGradient id="linear-gradient" x1="-3198.73" y1="168.66" x2="-3198.73" y2="390.16" gradientTransform="matrix(-1, 0, 0, 1, -2113.32, 0)" gradientUnits="userSpaceOnUse"><stop offset="0" stop-color="#962d51"/><stop offset="0.16" stop-color="#993253"/><stop offset="0.35" stop-color="#a34059"/><stop offset="0.55" stop-color="#b35862"/><stop offset="0.77" stop-color="#ca7a70"/><stop offset="0.99" stop-color="#e6a481"/><stop offset="1" stop-color="#e8a782"/></linearGradient><linearGradient id="linear-gradient-2" x1="-2761.12" y1="168.65" x2="-2761.12" y2="390.16" xlink:href="#linear-gradient"/></defs><g id="Layer_2" data-name="Layer 2"><g id="Layer_2-2" data-name="Layer 2"><path class="cls-1" d="M336.69,52.09V180.66l7.05-7.82h69.44v17.67h8.11v14h14.34v96.57h.7V75.57h3.51l13.05-18h9.72l4.25-19.37h5.64L475,9.89h-.7c-1.39,0-2.52-2.21-2.52-4.94S472.87,0,474.26,0H483c1.4,0,2.52,2.22,2.52,5S484.42,9.89,483,9.89h-.55l2.7,28.29h6.56l3.12,19.37h18.73l11.8,18h14V301.11h57.8V86.27h37V58.56h24V28.42h11V10.68h3.52V28.42h9.81V58.56h24.53V86.27h33.71v38H847.53V268.53H981.75v.71h66.5V124.92h106.88V87h33.71V59.27h24.53V29.13h9.81V11.39h3.52V29.13h11V59.27h24V87h36.95V301.82h57.8V76.27h14l11.8-18h18.73l3.12-19.38h6.57l2.69-28.28h-.55c-1.4,0-2.52-2.21-2.52-4.94s1.12-4.95,2.52-4.95h8.76c1.39,0,2.52,2.22,2.52,5s-1.13,4.94-2.52,4.94h-.7l2.46,28.28h5.64l4.25,19.38h9.72l13,18h3.51V301.82h.7V205.25h14.34v-14h8.11V173.55H1552l7,7.82V52.8H1706V267.28h47.54V182.17h41.43V146.24h115v35.93h10V397H250.81V52.09Z"/><path class="cls-2" d="M0,216.54H63.81v14.9h8.11v11.84H86.26v81.45H87V134.48h3.51l13-15.19h9.73l4.25-16.35h5.64l2.45-23.85h-.69c-1.39,0-2.52-1.87-2.52-4.17s1.13-4.18,2.52-4.18h8.76c1.39,0,2.52,1.87,2.52,4.18s-1.13,4.17-2.52,4.17h-.55l2.69,23.85h6.57l3.12,16.35h18.73L176,134.48h14V324.73H247.8V143.52h37V120.14h24V94.71h11v-15h3.53v15H333v25.43h24.53v23.38h33.71v32H498.16V297.25h66.5v-.6H698.87V174.92H805.76v-32h33.71V119.54H864V94.12h9.82v-15h3.52v15h11v25.42h24v23.38h37V324.13H1007V133.89h14l11.8-15.2h18.74l3.12-16.34h6.56l2.7-23.86h-.55c-1.4,0-2.53-1.87-2.53-4.17s1.13-4.17,2.53-4.17h8.76c1.39,0,2.52,1.87,2.52,4.17s-1.13,4.17-2.52,4.17h-.7l2.45,23.86h5.64l4.26,16.34h9.72l13,15.2h3.51V324.13h.7V242.68h14.34V230.84h8.11v-14.9h69.44l7,6.6V114.09h85.87V397H0Z"/></g></g></svg>