<svg xmlns="http://www.w3.org/2000/svg" viewBox="0 0 198.42 131.89"><defs><style>.cls-1{fill:#0c101c;}</style></defs><g id="Layer_2" data-name="Layer 2"><g id="Layer_2-2" data-name="Layer 2"><g id="Plane"><path class="cls-1" d="M14.38,86,0,63.84H6.61L5.45,62l8.93-1.83L33.05,76.66s2.81,2.52,9.26.92l46.93-11.9A495.82,495.82,0,0,0,56,6.87L53.54,0h2.65l5,5.72H63L85.6,29.06s.8.88,2.19,2.32c4.12-1.51,14.48-4.65,15.44,1.57.73,4.69-2.81,6.88-5.75,7.89a128.91,128.91,0,0,0,14.13,11.37c4.68-1.56,13.25-3.59,14.13,2a6.35,6.35,0,0,1-.59,4l49.47-11.22s23.14-2.74,23.8,5.65c0,0,.22,8.08-21.37,13.88L134.3,76.05s-5.29,1.22-6.83,4l-6.72,10.54c4.67-1.42,12.71-2.83,13.71,3.91,1.27,8.46-15.13,6.88-20.15,6.2l-4.78,7.51c4.81-.87,11.63-1.17,12.25,3.86,1.13,9.13-14.15,7.49-19,6.75l-8.35,13.1h-7l-1.1-1.68,1.81-.46s9.09-18.74,8.1-40.49c0,0-13.72-.24-15-.93,0,0-25.12,6-31.89,5.26L24.94,98.26l-4.78,9.29-6.77,3.21,2.47-20.14H11.57a3.74,3.74,0,0,1,0-3.2Z"/></g></g></g></svg>