<svg xmlns="http://www.w3.org/2000/svg" viewBox="0 0 679.68 691.69"><defs><style>.cls-1{fill:#0c101c;}</style></defs><g id="Layer_2" data-name="Layer 2"><g id="Layer_2-2" data-name="Layer 2"><g id="Plane"><path class="cls-1" d="M502.16,90.69l-.4-2.06c8-1.53,12.37-2.29,12.37-2.29l.36,2.07S510.1,89.16,502.16,90.69Z"/><path class="cls-1" d="M242.68,672.09c-7.18-4.5-14.31-9.05-21.19-13.54l1.14-1.75c6.87,4.47,14,9,21.16,13.51Zm-42.12-27.46c-7-4.77-14-9.61-20.64-14.37l1.22-1.7c6.66,4.75,13.59,9.57,20.6,14.33Zm-40.93-29.21c-6.82-5.12-13.51-10.29-19.9-15.38L141,598.4c6.37,5.08,13.05,10.24,19.84,15.35Zm-39.32-31.36c-6.52-5.54-12.86-11.15-18.86-16.65l1.42-1.54c6,5.48,12.3,11.07,18.8,16.6ZM83.29,550c-6.07-6.1-11.9-12.25-17.3-18.28l1.56-1.39c5.38,6,11.18,12.12,17.23,18.19ZM49.76,512.47c-5.35-6.79-10.34-13.64-14.83-20.35L36.67,491c4.46,6.67,9.42,13.48,14.74,20.22ZM21.9,470.54a211.93,211.93,0,0,1-10.66-22.85l1.95-.77a211.62,211.62,0,0,0,10.55,22.63ZM3.68,423.62a147.59,147.59,0,0,1-3.68-25l2.09-.12a147.54,147.54,0,0,0,3.62,24.62Zm-.75-49.95L.85,373.4a137.27,137.27,0,0,1,5.49-24.55l2,.64A134,134,0,0,0,2.93,373.67Zm15-47.08-1.86-1a181.1,181.1,0,0,1,13.17-21.48l1.71,1.22A178.64,178.64,0,0,0,17.92,326.59Zm28.67-40.67L45,284.52c5.4-6,11.37-12,17.74-17.91l1.42,1.54C57.87,274,51.94,280,46.59,285.92Zm36.67-34L82,250.26c6.37-5,13.18-10.08,20.26-15l1.19,1.72C96.37,241.88,89.59,246.9,83.26,251.91Zm41.14-28.67-1.11-1.78c6.93-4.29,14.23-8.59,21.71-12.79l1,1.83C138.57,214.68,131.3,219,124.4,223.24Zm43.77-24.59-.95-1.86c7.29-3.73,14.9-7.46,22.62-11.09l.89,1.89C183,191.21,175.44,194.94,168.17,198.65Zm45.45-21.42-.83-1.92c7.52-3.28,15.34-6.56,23.23-9.76l.79,1.94C228.93,170.68,221.13,174,213.62,177.23Zm46.56-18.89-.74-2c7.73-2.92,15.68-5.83,23.65-8.66l.7,2C275.84,152.52,267.89,155.42,260.18,158.34Zm47.4-16.81-.66-2c7.84-2.61,15.91-5.21,24-7.73l.63,2C323.47,136.33,315.41,138.93,307.58,141.53Zm48-15-.59-2c7.94-2.33,16.09-4.66,24.23-6.91l.56,2C371.65,121.86,363.51,124.18,355.58,126.51Zm48.5-13.44-.53-2c8.11-2.11,16.33-4.18,24.43-6.17l.5,2C420.39,108.89,412.18,111,404.08,113.07Zm48.9-12-.47-2c8.29-1.9,16.58-3.72,24.62-5.43l.43,2.05C469.53,97.38,461.26,99.21,453,101.1Z"/><path class="cls-1" d="M274.84,691.69q-5.46-3.24-10.79-6.46l1.08-1.79q5.33,3.21,10.78,6.45Z"/><path class="cls-1" d="M495.64,86l-14.38-22.2h6.61L486.71,62l8.93-1.83,18.67,16.48s2.81,2.52,9.26.92l46.93-11.9A495.82,495.82,0,0,0,537.28,6.87L534.8,0h2.65l5,5.72h1.81l22.64,23.34s.8.88,2.19,2.32c4.12-1.51,14.48-4.65,15.44,1.57.73,4.69-2.81,6.88-5.75,7.89a128.91,128.91,0,0,0,14.13,11.37c4.68-1.56,13.25-3.59,14.13,2a6.35,6.35,0,0,1-.59,4l49.47-11.22s23.14-2.74,23.8,5.65c0,0,.22,8.08-21.37,13.88l-42.75,9.46s-5.29,1.22-6.83,4L602,90.56c4.67-1.42,12.71-2.83,13.71,3.91,1.27,8.46-15.13,6.88-20.15,6.2l-4.78,7.51c4.81-.87,11.63-1.17,12.25,3.86,1.13,9.13-14.15,7.49-19,6.75l-8.35,13.1h-7l-1.1-1.68,1.81-.46s9.09-18.74,8.1-40.49c0,0-13.72-.24-15-.93,0,0-25.12,6-31.89,5.26L506.2,98.26l-4.78,9.29-6.77,3.21,2.48-20.14h-4.3a3.74,3.74,0,0,1,0-3.2Z"/></g></g></g></svg>