<svg xmlns="http://www.w3.org/2000/svg" viewBox="0 0 514.49 605.35"><defs><style>.cls-1{fill:#0c101c;}</style></defs><g id="Layer_2" data-name="Layer 2"><g id="Layer_2-2" data-name="Layer 2"><g id="Plane"><path class="cls-1" d="M502.16,4.34l-.4-2C509.74.75,514.13,0,514.13,0l.36,2.06S510.1,2.81,502.16,4.34Z"/><path class="cls-1" d="M242.68,585.74c-7.18-4.5-14.31-9-21.19-13.53l1.14-1.75c6.87,4.47,14,9,21.16,13.51Zm-42.12-27.46c-7-4.77-14-9.6-20.64-14.36l1.22-1.71c6.66,4.76,13.59,9.58,20.6,14.34Zm-40.93-29.2c-6.82-5.12-13.51-10.3-19.9-15.38l1.31-1.64c6.37,5.07,13.05,10.23,19.84,15.34Zm-39.32-31.36c-6.52-5.55-12.86-11.15-18.86-16.65l1.42-1.55c6,5.49,12.3,11.07,18.8,16.6Zm-37-34.07c-6.07-6.09-11.9-12.24-17.3-18.27l1.56-1.4c5.38,6,11.18,12.13,17.23,18.2ZM49.76,426.13c-5.35-6.79-10.34-13.64-14.83-20.36l1.74-1.16c4.46,6.67,9.42,13.47,14.74,20.22ZM21.9,384.2a213,213,0,0,1-10.66-22.86l1.95-.76a213.45,213.45,0,0,0,10.55,22.63ZM3.68,337.27a147.45,147.45,0,0,1-3.68-25l2.09-.12a147.39,147.39,0,0,0,3.62,24.62Zm-.75-49.95-2.08-.27a137.35,137.35,0,0,1,5.49-24.54l2,.64A134.11,134.11,0,0,0,2.93,287.32Zm15-47.07-1.86-1a181,181,0,0,1,13.17-21.47L30.94,219A179.56,179.56,0,0,0,17.92,240.25Zm28.67-40.68L45,198.17c5.4-6,11.37-12,17.74-17.9l1.42,1.54C57.87,187.64,51.94,193.62,46.59,199.57Zm36.67-34L82,163.92c6.37-5,13.18-10.08,20.26-15l1.19,1.72C96.37,155.54,89.59,160.55,83.26,165.56ZM124.4,136.9l-1.11-1.78c6.93-4.3,14.23-8.6,21.71-12.79l1,1.83C138.57,128.33,131.3,132.62,124.4,136.9Zm43.77-24.59-.95-1.87c7.29-3.72,14.9-7.46,22.62-11.09l.89,1.9C183,104.87,175.44,108.59,168.17,112.31Zm45.45-21.43L212.79,89c7.52-3.28,15.34-6.56,23.23-9.76l.79,2C228.93,84.34,221.13,87.61,213.62,90.88ZM260.18,72l-.74-2c7.73-2.92,15.68-5.84,23.65-8.66l.7,2C275.84,66.17,267.89,69.08,260.18,72Zm47.4-16.81-.66-2c7.84-2.61,15.91-5.21,24-7.73l.63,2C323.47,50,315.41,52.58,307.58,55.19Zm48-15-.59-2c7.94-2.34,16.09-4.66,24.23-6.92l.56,2C371.65,35.51,363.51,37.84,355.58,40.17Zm48.5-13.44-.53-2c8.11-2.11,16.33-4.19,24.43-6.17l.5,2C420.39,22.54,412.18,24.62,404.08,26.73Zm48.9-12-.47-2c8.29-1.9,16.58-3.73,24.62-5.44l.43,2.05C469.53,11,461.26,12.86,453,14.76Z"/><path class="cls-1" d="M274.84,605.35q-5.46-3.24-10.79-6.47l1.08-1.79q5.33,3.23,10.78,6.46Z"/></g></g></g></svg>